<mxfile host="app.diagrams.net" modified="2024-03-13T09:19:17.535Z" agent="Mozilla/5.0 (Windows NT 10.0; Win64; x64; rv:123.0) Gecko/20100101 Firefox/123.0" etag="4xEdgqPXZ3SYO50bo1P-" version="24.0.5" type="device">
  <diagram name="Seite-1" id="jfA951pRMSdxay0xsLdZ">
    <mxGraphModel dx="1707" dy="955" grid="1" gridSize="10" guides="1" tooltips="1" connect="1" arrows="1" fold="1" page="1" pageScale="1" pageWidth="827" pageHeight="1169" math="0" shadow="0">
      <root>
        <mxCell id="0" />
        <mxCell id="1" parent="0" />
        <mxCell id="7VOoRs4g7OENyaG949xT-1" value="FourWinsGame" style="swimlane;fontStyle=1;align=center;verticalAlign=top;childLayout=stackLayout;horizontal=1;startSize=26;horizontalStack=0;resizeParent=1;resizeParentMax=0;resizeLast=0;collapsible=1;marginBottom=0;whiteSpace=wrap;html=1;" vertex="1" parent="1">
          <mxGeometry x="190" y="260" width="310" height="242" as="geometry" />
        </mxCell>
        <mxCell id="7VOoRs4g7OENyaG949xT-65" value="- gui: GUI" style="text;strokeColor=none;fillColor=none;align=left;verticalAlign=top;spacingLeft=4;spacingRight=4;overflow=hidden;rotatable=0;points=[[0,0.5],[1,0.5]];portConstraint=eastwest;whiteSpace=wrap;html=1;" vertex="1" parent="7VOoRs4g7OENyaG949xT-1">
          <mxGeometry y="26" width="310" height="26" as="geometry" />
        </mxCell>
        <mxCell id="7VOoRs4g7OENyaG949xT-66" value="- field : Field" style="text;strokeColor=none;fillColor=none;align=left;verticalAlign=top;spacingLeft=4;spacingRight=4;overflow=hidden;rotatable=0;points=[[0,0.5],[1,0.5]];portConstraint=eastwest;whiteSpace=wrap;html=1;" vertex="1" parent="7VOoRs4g7OENyaG949xT-1">
          <mxGeometry y="52" width="310" height="26" as="geometry" />
        </mxCell>
        <mxCell id="7VOoRs4g7OENyaG949xT-67" value="- ruleSet: RuleSet" style="text;strokeColor=none;fillColor=none;align=left;verticalAlign=top;spacingLeft=4;spacingRight=4;overflow=hidden;rotatable=0;points=[[0,0.5],[1,0.5]];portConstraint=eastwest;whiteSpace=wrap;html=1;" vertex="1" parent="7VOoRs4g7OENyaG949xT-1">
          <mxGeometry y="78" width="310" height="26" as="geometry" />
        </mxCell>
        <mxCell id="7VOoRs4g7OENyaG949xT-64" value="- player1 : Player" style="text;strokeColor=none;fillColor=none;align=left;verticalAlign=top;spacingLeft=4;spacingRight=4;overflow=hidden;rotatable=0;points=[[0,0.5],[1,0.5]];portConstraint=eastwest;whiteSpace=wrap;html=1;" vertex="1" parent="7VOoRs4g7OENyaG949xT-1">
          <mxGeometry y="104" width="310" height="26" as="geometry" />
        </mxCell>
        <mxCell id="7VOoRs4g7OENyaG949xT-68" value="- player2 : Player" style="text;strokeColor=none;fillColor=none;align=left;verticalAlign=top;spacingLeft=4;spacingRight=4;overflow=hidden;rotatable=0;points=[[0,0.5],[1,0.5]];portConstraint=eastwest;whiteSpace=wrap;html=1;" vertex="1" parent="7VOoRs4g7OENyaG949xT-1">
          <mxGeometry y="130" width="310" height="26" as="geometry" />
        </mxCell>
        <mxCell id="7VOoRs4g7OENyaG949xT-3" value="" style="line;strokeWidth=1;fillColor=none;align=left;verticalAlign=middle;spacingTop=-1;spacingLeft=3;spacingRight=3;rotatable=0;labelPosition=right;points=[];portConstraint=eastwest;strokeColor=inherit;" vertex="1" parent="7VOoRs4g7OENyaG949xT-1">
          <mxGeometry y="156" width="310" height="8" as="geometry" />
        </mxCell>
        <mxCell id="7VOoRs4g7OENyaG949xT-69" value="+ __init__(eing. player1ID : char, eing. player2ID : char)" style="text;strokeColor=none;fillColor=none;align=left;verticalAlign=top;spacingLeft=4;spacingRight=4;overflow=hidden;rotatable=0;points=[[0,0.5],[1,0.5]];portConstraint=eastwest;whiteSpace=wrap;html=1;" vertex="1" parent="7VOoRs4g7OENyaG949xT-1">
          <mxGeometry y="164" width="310" height="26" as="geometry" />
        </mxCell>
        <mxCell id="7VOoRs4g7OENyaG949xT-4" value="&lt;div&gt;+ initializegame()&lt;/div&gt;" style="text;strokeColor=none;fillColor=none;align=left;verticalAlign=top;spacingLeft=4;spacingRight=4;overflow=hidden;rotatable=0;points=[[0,0.5],[1,0.5]];portConstraint=eastwest;whiteSpace=wrap;html=1;" vertex="1" parent="7VOoRs4g7OENyaG949xT-1">
          <mxGeometry y="190" width="310" height="26" as="geometry" />
        </mxCell>
        <mxCell id="7VOoRs4g7OENyaG949xT-29" value="+ startgame()" style="text;strokeColor=none;fillColor=none;align=left;verticalAlign=top;spacingLeft=4;spacingRight=4;overflow=hidden;rotatable=0;points=[[0,0.5],[1,0.5]];portConstraint=eastwest;whiteSpace=wrap;html=1;" vertex="1" parent="7VOoRs4g7OENyaG949xT-1">
          <mxGeometry y="216" width="310" height="26" as="geometry" />
        </mxCell>
        <mxCell id="7VOoRs4g7OENyaG949xT-5" value="Field" style="swimlane;fontStyle=1;align=center;verticalAlign=top;childLayout=stackLayout;horizontal=1;startSize=26;horizontalStack=0;resizeParent=1;resizeParentMax=0;resizeLast=0;collapsible=1;marginBottom=0;whiteSpace=wrap;html=1;" vertex="1" parent="1">
          <mxGeometry x="667" y="260" width="303" height="242" as="geometry" />
        </mxCell>
        <mxCell id="7VOoRs4g7OENyaG949xT-6" value="- fields : list" style="text;strokeColor=none;fillColor=none;align=left;verticalAlign=top;spacingLeft=4;spacingRight=4;overflow=hidden;rotatable=0;points=[[0,0.5],[1,0.5]];portConstraint=eastwest;whiteSpace=wrap;html=1;" vertex="1" parent="7VOoRs4g7OENyaG949xT-5">
          <mxGeometry y="26" width="303" height="26" as="geometry" />
        </mxCell>
        <mxCell id="7VOoRs4g7OENyaG949xT-39" value="- lastRow : int" style="text;strokeColor=none;fillColor=none;align=left;verticalAlign=top;spacingLeft=4;spacingRight=4;overflow=hidden;rotatable=0;points=[[0,0.5],[1,0.5]];portConstraint=eastwest;whiteSpace=wrap;html=1;" vertex="1" parent="7VOoRs4g7OENyaG949xT-5">
          <mxGeometry y="52" width="303" height="26" as="geometry" />
        </mxCell>
        <mxCell id="7VOoRs4g7OENyaG949xT-14" value="- lastCol : int" style="text;strokeColor=none;fillColor=none;align=left;verticalAlign=top;spacingLeft=4;spacingRight=4;overflow=hidden;rotatable=0;points=[[0,0.5],[1,0.5]];portConstraint=eastwest;whiteSpace=wrap;html=1;" vertex="1" parent="7VOoRs4g7OENyaG949xT-5">
          <mxGeometry y="78" width="303" height="26" as="geometry" />
        </mxCell>
        <mxCell id="7VOoRs4g7OENyaG949xT-7" value="" style="line;strokeWidth=1;fillColor=none;align=left;verticalAlign=middle;spacingTop=-1;spacingLeft=3;spacingRight=3;rotatable=0;labelPosition=right;points=[];portConstraint=eastwest;strokeColor=inherit;" vertex="1" parent="7VOoRs4g7OENyaG949xT-5">
          <mxGeometry y="104" width="303" height="8" as="geometry" />
        </mxCell>
        <mxCell id="7VOoRs4g7OENyaG949xT-70" value="+ __init__()" style="text;strokeColor=none;fillColor=none;align=left;verticalAlign=top;spacingLeft=4;spacingRight=4;overflow=hidden;rotatable=0;points=[[0,0.5],[1,0.5]];portConstraint=eastwest;whiteSpace=wrap;html=1;" vertex="1" parent="7VOoRs4g7OENyaG949xT-5">
          <mxGeometry y="112" width="303" height="26" as="geometry" />
        </mxCell>
        <mxCell id="7VOoRs4g7OENyaG949xT-8" value="+ getFields() : list" style="text;strokeColor=none;fillColor=none;align=left;verticalAlign=top;spacingLeft=4;spacingRight=4;overflow=hidden;rotatable=0;points=[[0,0.5],[1,0.5]];portConstraint=eastwest;whiteSpace=wrap;html=1;" vertex="1" parent="7VOoRs4g7OENyaG949xT-5">
          <mxGeometry y="138" width="303" height="26" as="geometry" />
        </mxCell>
        <mxCell id="7VOoRs4g7OENyaG949xT-36" value="+ setFields(eing. col: int, eing. value : char)" style="text;strokeColor=none;fillColor=none;align=left;verticalAlign=top;spacingLeft=4;spacingRight=4;overflow=hidden;rotatable=0;points=[[0,0.5],[1,0.5]];portConstraint=eastwest;whiteSpace=wrap;html=1;" vertex="1" parent="7VOoRs4g7OENyaG949xT-5">
          <mxGeometry y="164" width="303" height="26" as="geometry" />
        </mxCell>
        <mxCell id="7VOoRs4g7OENyaG949xT-38" value="+ getLastRow(eing. col : int, eing. row :int) : int" style="text;strokeColor=none;fillColor=none;align=left;verticalAlign=top;spacingLeft=4;spacingRight=4;overflow=hidden;rotatable=0;points=[[0,0.5],[1,0.5]];portConstraint=eastwest;whiteSpace=wrap;html=1;" vertex="1" parent="7VOoRs4g7OENyaG949xT-5">
          <mxGeometry y="190" width="303" height="26" as="geometry" />
        </mxCell>
        <mxCell id="7VOoRs4g7OENyaG949xT-37" value="+ getLastCol() : int" style="text;strokeColor=none;fillColor=none;align=left;verticalAlign=top;spacingLeft=4;spacingRight=4;overflow=hidden;rotatable=0;points=[[0,0.5],[1,0.5]];portConstraint=eastwest;whiteSpace=wrap;html=1;" vertex="1" parent="7VOoRs4g7OENyaG949xT-5">
          <mxGeometry y="216" width="303" height="26" as="geometry" />
        </mxCell>
        <mxCell id="7VOoRs4g7OENyaG949xT-9" value="RuleSet" style="swimlane;fontStyle=1;align=center;verticalAlign=top;childLayout=stackLayout;horizontal=1;startSize=26;horizontalStack=0;resizeParent=1;resizeParentMax=0;resizeLast=0;collapsible=1;marginBottom=0;whiteSpace=wrap;html=1;" vertex="1" parent="1">
          <mxGeometry x="165" y="30" width="360" height="112" as="geometry" />
        </mxCell>
        <mxCell id="7VOoRs4g7OENyaG949xT-11" value="" style="line;strokeWidth=1;fillColor=none;align=left;verticalAlign=middle;spacingTop=-1;spacingLeft=3;spacingRight=3;rotatable=0;labelPosition=right;points=[];portConstraint=eastwest;strokeColor=inherit;" vertex="1" parent="7VOoRs4g7OENyaG949xT-9">
          <mxGeometry y="26" width="360" height="8" as="geometry" />
        </mxCell>
        <mxCell id="7VOoRs4g7OENyaG949xT-12" value="+ checkDraw(eing. field : Field, eing. col: int) : bool" style="text;strokeColor=none;fillColor=none;align=left;verticalAlign=top;spacingLeft=4;spacingRight=4;overflow=hidden;rotatable=0;points=[[0,0.5],[1,0.5]];portConstraint=eastwest;whiteSpace=wrap;html=1;" vertex="1" parent="7VOoRs4g7OENyaG949xT-9">
          <mxGeometry y="34" width="360" height="26" as="geometry" />
        </mxCell>
        <mxCell id="7VOoRs4g7OENyaG949xT-31" value="+ checkPlayerWon(eing. field : Field, eing. player : Player) : bool" style="text;strokeColor=none;fillColor=none;align=left;verticalAlign=top;spacingLeft=4;spacingRight=4;overflow=hidden;rotatable=0;points=[[0,0.5],[1,0.5]];portConstraint=eastwest;whiteSpace=wrap;html=1;" vertex="1" parent="7VOoRs4g7OENyaG949xT-9">
          <mxGeometry y="60" width="360" height="26" as="geometry" />
        </mxCell>
        <mxCell id="7VOoRs4g7OENyaG949xT-32" value="+ checkGameOver(eing. field : Field) : bool" style="text;strokeColor=none;fillColor=none;align=left;verticalAlign=top;spacingLeft=4;spacingRight=4;overflow=hidden;rotatable=0;points=[[0,0.5],[1,0.5]];portConstraint=eastwest;whiteSpace=wrap;html=1;" vertex="1" parent="7VOoRs4g7OENyaG949xT-9">
          <mxGeometry y="86" width="360" height="26" as="geometry" />
        </mxCell>
        <mxCell id="7VOoRs4g7OENyaG949xT-13" value="GUI" style="swimlane;fontStyle=1;align=center;verticalAlign=top;childLayout=stackLayout;horizontal=1;startSize=26;horizontalStack=0;resizeParent=1;resizeParentMax=0;resizeLast=0;collapsible=1;marginBottom=0;whiteSpace=wrap;html=1;" vertex="1" parent="1">
          <mxGeometry x="-160" y="312" width="240" height="138" as="geometry" />
        </mxCell>
        <mxCell id="7VOoRs4g7OENyaG949xT-15" value="" style="line;strokeWidth=1;fillColor=none;align=left;verticalAlign=middle;spacingTop=-1;spacingLeft=3;spacingRight=3;rotatable=0;labelPosition=right;points=[];portConstraint=eastwest;strokeColor=inherit;" vertex="1" parent="7VOoRs4g7OENyaG949xT-13">
          <mxGeometry y="26" width="240" height="8" as="geometry" />
        </mxCell>
        <mxCell id="7VOoRs4g7OENyaG949xT-33" value="+ outputField(eing. field: Field)" style="text;strokeColor=none;fillColor=none;align=left;verticalAlign=top;spacingLeft=4;spacingRight=4;overflow=hidden;rotatable=0;points=[[0,0.5],[1,0.5]];portConstraint=eastwest;whiteSpace=wrap;html=1;" vertex="1" parent="7VOoRs4g7OENyaG949xT-13">
          <mxGeometry y="34" width="240" height="26" as="geometry" />
        </mxCell>
        <mxCell id="7VOoRs4g7OENyaG949xT-16" value="+ getName(eing. playerNr : int) : string" style="text;strokeColor=none;fillColor=none;align=left;verticalAlign=top;spacingLeft=4;spacingRight=4;overflow=hidden;rotatable=0;points=[[0,0.5],[1,0.5]];portConstraint=eastwest;whiteSpace=wrap;html=1;" vertex="1" parent="7VOoRs4g7OENyaG949xT-13">
          <mxGeometry y="60" width="240" height="26" as="geometry" />
        </mxCell>
        <mxCell id="7VOoRs4g7OENyaG949xT-35" value="+ getGameMode(eing. name : string) : int" style="text;strokeColor=none;fillColor=none;align=left;verticalAlign=top;spacingLeft=4;spacingRight=4;overflow=hidden;rotatable=0;points=[[0,0.5],[1,0.5]];portConstraint=eastwest;whiteSpace=wrap;html=1;" vertex="1" parent="7VOoRs4g7OENyaG949xT-13">
          <mxGeometry y="86" width="240" height="26" as="geometry" />
        </mxCell>
        <mxCell id="7VOoRs4g7OENyaG949xT-34" value="+ getDraw(eing. name : string) : Position" style="text;strokeColor=none;fillColor=none;align=left;verticalAlign=top;spacingLeft=4;spacingRight=4;overflow=hidden;rotatable=0;points=[[0,0.5],[1,0.5]];portConstraint=eastwest;whiteSpace=wrap;html=1;" vertex="1" parent="7VOoRs4g7OENyaG949xT-13">
          <mxGeometry y="112" width="240" height="26" as="geometry" />
        </mxCell>
        <mxCell id="7VOoRs4g7OENyaG949xT-17" value="Player" style="swimlane;fontStyle=1;align=center;verticalAlign=top;childLayout=stackLayout;horizontal=1;startSize=26;horizontalStack=0;resizeParent=1;resizeParentMax=0;resizeLast=0;collapsible=1;marginBottom=0;whiteSpace=wrap;html=1;" vertex="1" parent="1">
          <mxGeometry x="20" y="750" width="650" height="294" as="geometry" />
        </mxCell>
        <mxCell id="7VOoRs4g7OENyaG949xT-18" value="&lt;div&gt;- name: string&lt;/div&gt;" style="text;strokeColor=none;fillColor=none;align=left;verticalAlign=top;spacingLeft=4;spacingRight=4;overflow=hidden;rotatable=0;points=[[0,0.5],[1,0.5]];portConstraint=eastwest;whiteSpace=wrap;html=1;" vertex="1" parent="7VOoRs4g7OENyaG949xT-17">
          <mxGeometry y="26" width="650" height="26" as="geometry" />
        </mxCell>
        <mxCell id="7VOoRs4g7OENyaG949xT-22" value="&lt;div&gt;- playerID: char&lt;br&gt;&lt;/div&gt;" style="text;strokeColor=none;fillColor=none;align=left;verticalAlign=top;spacingLeft=4;spacingRight=4;overflow=hidden;rotatable=0;points=[[0,0.5],[1,0.5]];portConstraint=eastwest;whiteSpace=wrap;html=1;" vertex="1" parent="7VOoRs4g7OENyaG949xT-17">
          <mxGeometry y="52" width="650" height="26" as="geometry" />
        </mxCell>
        <mxCell id="7VOoRs4g7OENyaG949xT-21" value="- gameMode : int" style="text;strokeColor=none;fillColor=none;align=left;verticalAlign=top;spacingLeft=4;spacingRight=4;overflow=hidden;rotatable=0;points=[[0,0.5],[1,0.5]];portConstraint=eastwest;whiteSpace=wrap;html=1;" vertex="1" parent="7VOoRs4g7OENyaG949xT-17">
          <mxGeometry y="78" width="650" height="26" as="geometry" />
        </mxCell>
        <mxCell id="7VOoRs4g7OENyaG949xT-19" value="" style="line;strokeWidth=1;fillColor=none;align=left;verticalAlign=middle;spacingTop=-1;spacingLeft=3;spacingRight=3;rotatable=0;labelPosition=right;points=[];portConstraint=eastwest;strokeColor=inherit;" vertex="1" parent="7VOoRs4g7OENyaG949xT-17">
          <mxGeometry y="104" width="650" height="8" as="geometry" />
        </mxCell>
        <mxCell id="7VOoRs4g7OENyaG949xT-20" value="+ __init__(eing. name: string, eing. playerID : char, eing. gameMode : int)" style="text;strokeColor=none;fillColor=none;align=left;verticalAlign=top;spacingLeft=4;spacingRight=4;overflow=hidden;rotatable=0;points=[[0,0.5],[1,0.5]];portConstraint=eastwest;whiteSpace=wrap;html=1;" vertex="1" parent="7VOoRs4g7OENyaG949xT-17">
          <mxGeometry y="112" width="650" height="26" as="geometry" />
        </mxCell>
        <mxCell id="7VOoRs4g7OENyaG949xT-63" value="+ getName() : string" style="text;strokeColor=none;fillColor=none;align=left;verticalAlign=top;spacingLeft=4;spacingRight=4;overflow=hidden;rotatable=0;points=[[0,0.5],[1,0.5]];portConstraint=eastwest;whiteSpace=wrap;html=1;" vertex="1" parent="7VOoRs4g7OENyaG949xT-17">
          <mxGeometry y="138" width="650" height="26" as="geometry" />
        </mxCell>
        <mxCell id="7VOoRs4g7OENyaG949xT-23" value="+ setName(eing. name : string)" style="text;strokeColor=none;fillColor=none;align=left;verticalAlign=top;spacingLeft=4;spacingRight=4;overflow=hidden;rotatable=0;points=[[0,0.5],[1,0.5]];portConstraint=eastwest;whiteSpace=wrap;html=1;" vertex="1" parent="7VOoRs4g7OENyaG949xT-17">
          <mxGeometry y="164" width="650" height="26" as="geometry" />
        </mxCell>
        <mxCell id="7VOoRs4g7OENyaG949xT-25" value="+ getID() : char" style="text;strokeColor=none;fillColor=none;align=left;verticalAlign=top;spacingLeft=4;spacingRight=4;overflow=hidden;rotatable=0;points=[[0,0.5],[1,0.5]];portConstraint=eastwest;whiteSpace=wrap;html=1;" vertex="1" parent="7VOoRs4g7OENyaG949xT-17">
          <mxGeometry y="190" width="650" height="26" as="geometry" />
        </mxCell>
        <mxCell id="7VOoRs4g7OENyaG949xT-26" value="+ setID(eing. name : char)" style="text;strokeColor=none;fillColor=none;align=left;verticalAlign=top;spacingLeft=4;spacingRight=4;overflow=hidden;rotatable=0;points=[[0,0.5],[1,0.5]];portConstraint=eastwest;whiteSpace=wrap;html=1;" vertex="1" parent="7VOoRs4g7OENyaG949xT-17">
          <mxGeometry y="216" width="650" height="26" as="geometry" />
        </mxCell>
        <mxCell id="7VOoRs4g7OENyaG949xT-27" value="+ getGameMode() : int" style="text;strokeColor=none;fillColor=none;align=left;verticalAlign=top;spacingLeft=4;spacingRight=4;overflow=hidden;rotatable=0;points=[[0,0.5],[1,0.5]];portConstraint=eastwest;whiteSpace=wrap;html=1;" vertex="1" parent="7VOoRs4g7OENyaG949xT-17">
          <mxGeometry y="242" width="650" height="26" as="geometry" />
        </mxCell>
        <mxCell id="7VOoRs4g7OENyaG949xT-28" value="+ playDraw(eing.gui: GUI) : int" style="text;strokeColor=none;fillColor=none;align=left;verticalAlign=top;spacingLeft=4;spacingRight=4;overflow=hidden;rotatable=0;points=[[0,0.5],[1,0.5]];portConstraint=eastwest;whiteSpace=wrap;html=1;" vertex="1" parent="7VOoRs4g7OENyaG949xT-17">
          <mxGeometry y="268" width="650" height="26" as="geometry" />
        </mxCell>
        <mxCell id="7VOoRs4g7OENyaG949xT-45" value="" style="endArrow=diamondThin;endFill=1;endSize=24;html=1;rounded=0;" edge="1" parent="1" source="7VOoRs4g7OENyaG949xT-17" target="7VOoRs4g7OENyaG949xT-1">
          <mxGeometry width="160" relative="1" as="geometry">
            <mxPoint x="230" y="410" as="sourcePoint" />
            <mxPoint x="390" y="410" as="targetPoint" />
          </mxGeometry>
        </mxCell>
        <mxCell id="7VOoRs4g7OENyaG949xT-46" value="1" style="text;html=1;align=center;verticalAlign=middle;resizable=0;points=[];autosize=1;strokeColor=none;fillColor=none;" vertex="1" parent="1">
          <mxGeometry x="350" y="460" width="30" height="30" as="geometry" />
        </mxCell>
        <mxCell id="7VOoRs4g7OENyaG949xT-47" value="1.. 2" style="text;html=1;align=center;verticalAlign=middle;resizable=0;points=[];autosize=1;strokeColor=none;fillColor=none;" vertex="1" parent="1">
          <mxGeometry x="350" y="720" width="50" height="30" as="geometry" />
        </mxCell>
        <mxCell id="7VOoRs4g7OENyaG949xT-48" value="" style="endArrow=diamondThin;endFill=1;endSize=24;html=1;rounded=0;" edge="1" parent="1" source="7VOoRs4g7OENyaG949xT-5" target="7VOoRs4g7OENyaG949xT-1">
          <mxGeometry width="160" relative="1" as="geometry">
            <mxPoint x="344" y="500" as="sourcePoint" />
            <mxPoint x="344" y="356" as="targetPoint" />
          </mxGeometry>
        </mxCell>
        <mxCell id="7VOoRs4g7OENyaG949xT-55" value="" style="endArrow=diamondThin;endFill=1;endSize=24;html=1;rounded=0;" edge="1" parent="1" source="7VOoRs4g7OENyaG949xT-9" target="7VOoRs4g7OENyaG949xT-1">
          <mxGeometry width="160" relative="1" as="geometry">
            <mxPoint x="600" y="313" as="sourcePoint" />
            <mxPoint x="424" y="313" as="targetPoint" />
          </mxGeometry>
        </mxCell>
        <mxCell id="7VOoRs4g7OENyaG949xT-56" value="" style="endArrow=diamondThin;endFill=1;endSize=24;html=1;rounded=0;" edge="1" parent="1" source="7VOoRs4g7OENyaG949xT-13" target="7VOoRs4g7OENyaG949xT-1">
          <mxGeometry width="160" relative="1" as="geometry">
            <mxPoint x="600" y="313" as="sourcePoint" />
            <mxPoint x="424" y="313" as="targetPoint" />
          </mxGeometry>
        </mxCell>
        <mxCell id="7VOoRs4g7OENyaG949xT-57" value="1" style="text;html=1;align=center;verticalAlign=middle;resizable=0;points=[];autosize=1;strokeColor=none;fillColor=none;" vertex="1" parent="1">
          <mxGeometry x="530" y="350" width="30" height="30" as="geometry" />
        </mxCell>
        <mxCell id="7VOoRs4g7OENyaG949xT-58" value="1" style="text;html=1;align=center;verticalAlign=middle;resizable=0;points=[];autosize=1;strokeColor=none;fillColor=none;" vertex="1" parent="1">
          <mxGeometry x="637" y="350" width="30" height="30" as="geometry" />
        </mxCell>
        <mxCell id="7VOoRs4g7OENyaG949xT-59" value="1" style="text;html=1;align=center;verticalAlign=middle;resizable=0;points=[];autosize=1;strokeColor=none;fillColor=none;" vertex="1" parent="1">
          <mxGeometry x="310" y="220" width="30" height="30" as="geometry" />
        </mxCell>
        <mxCell id="7VOoRs4g7OENyaG949xT-60" value="1" style="text;html=1;align=center;verticalAlign=middle;resizable=0;points=[];autosize=1;strokeColor=none;fillColor=none;" vertex="1" parent="1">
          <mxGeometry x="310" y="142" width="30" height="30" as="geometry" />
        </mxCell>
        <mxCell id="7VOoRs4g7OENyaG949xT-61" value="1" style="text;html=1;align=center;verticalAlign=middle;resizable=0;points=[];autosize=1;strokeColor=none;fillColor=none;" vertex="1" parent="1">
          <mxGeometry x="140" y="350" width="30" height="30" as="geometry" />
        </mxCell>
        <mxCell id="7VOoRs4g7OENyaG949xT-62" value="1" style="text;html=1;align=center;verticalAlign=middle;resizable=0;points=[];autosize=1;strokeColor=none;fillColor=none;" vertex="1" parent="1">
          <mxGeometry x="80" y="350" width="30" height="30" as="geometry" />
        </mxCell>
      </root>
    </mxGraphModel>
  </diagram>
</mxfile>
